<?xml version="1.0" standalone="no"?>
<!DOCTYPE svg PUBLIC "-//W3C//DTD SVG 20010904//EN"
 "http://www.w3.org/TR/2001/REC-SVG-20010904/DTD/svg10.dtd">
<svg version="1.0" xmlns="http://www.w3.org/2000/svg"
 width="60.000000pt" height="69.000000pt" viewBox="0 0 60.000000 69.000000"
 preserveAspectRatio="xMidYMid meet">
<metadata>
Created by potrace 1.15, written by Peter Selinger 2001-2017
</metadata>
<g transform="translate(0.000000,69.000000) scale(0.100000,-0.100000)"
fill="#000000" stroke="none">
<path d="M230 649 c0 -5 -10 -9 -23 -9 -13 0 -48 -17 -77 -38 -75 -51 -121
-130 -128 -217 -8 -104 20 -175 104 -262 66 -70 224 -89 320 -40 59 30 118 92
140 147 9 22 19 40 24 40 4 0 7 35 8 78 0 70 -3 84 -31 132 -66 115 -170 182
-278 179 -32 -1 -59 -6 -59 -10z"/>
</g>
</svg>
